#!OML:ASF F:\VICON\USERDATA\INSTALL\Justin_Nancy\Justin_Nancy.ASF
:FULLY-SPECIFIED
:DEGREES
326
root -0.249472 17.0826 10.2074 0.547043 3.94135 6.60686
lowerback 6.61452 -1.78971 -7.91957
upperback 0.424476 -2.94421 0.825
thorax -2.82894 -1.36363 5.56572
lowerneck -17.389 -5.08411 -10.0509
upperneck 20.85 -6.15055 7.66478
head 10.0714 -2.78616 3.51514
rclavicle 1.04362e-015 -9.54166e-015
rhumerus -36.1937 -23.9487 -72.8892
rradius 25.6199
rwrist 12.0124
rhand -15.318 14.692
rfingers 7.12502
rthumb 10.8581 -15.0073
lclavicle 1.04362e-015 -9.54166e-015
lhumerus -21.7116 -3.21176 86.3035
lradius 34.0593
lwrist -6.7668
lhand -12.7089 24.8428
lfingers 7.12502
lthumb 13.3738 54.3935
rfemur -27.907 0.674042 12.7613
rtibia 15.7546
rfoot -3.70287 -6.92655
rtoes -1.65867
lfemur 11.2178 -4.10611 -29.3234
ltibia 22.6426
lfoot -15.8023 -0.821449
ltoes -14.1238
327
root -0.272093 17.0742 10.4099 0.408361 3.93303 6.43296
lowerback 6.47983 -1.75603 -7.78771
upperback 0.469512 -2.87458 0.883292
thorax -2.72022 -1.33665 5.53983
lowerneck -17.3123 -5.13533 -10.0833
upperneck 21.0299 -6.20106 7.54179
head 10.1236 -2.82817 3.4723
rclavicle 9.93923e-015 1.74931e-014
rhumerus -36.3831 -23.6643 -72.8708
rradius 25.6931
rwrist 11.5915
rhand -15.4307 13.7264
rfingers 7.12502
rthumb 10.7494 -15.9785
lclavicle 9.93923e-015 1.74931e-014
lhumerus -22.0231 -3.24902 86.3594
lradius 34.7815
lwrist -6.98686
lhand -12.5091 25.2059
lfingers 7.12502
lthumb 13.5663 54.744
rfemur -27.8694 0.249513 13.366
rtibia 17.5107
rfoot -3.42887 -6.25442
rtoes -1.21111
lfemur 11.6027 -4.50844 -29.1708
ltibia 23.497
lfoot -15.2503 -0.983353
ltoes -15.5283
328
root -0.304649 17.0754 10.6094 0.403474 3.93769 6.04259
lowerback 6.51911 -1.73435 -7.57549
upperback 0.353241 -2.83324 1.03885
thorax -2.87221 -1.30791 5.58588
lowerneck -17.171 -5.10732 -9.8875
upperneck 21.0213 -6.14684 7.20644
head 10.0704 -2.82828 3.3288
rclavicle 1.71949e-014 0
rhumerus -36.7092 -23.6078 -72.6954
rradius 25.695
rwrist 11.607
rhand -15.3299 13.1194
rfingers 7.12502
rthumb 10.8465 -16.5805
lclavicle 1.71949e-014 0
lhumerus -22.3377 -3.26592 86.3953
lradius 35.2813
lwrist -7.25956
lhand -12.3559 25.6352
lfingers 7.12502
lthumb 13.714 55.1633
rfemur -27.9636 0.497399 14.0284
rtibia 19.0219
rfoot -2.55461 -6.46707
rtoes -1.53342
lfemur 11.7653 -4.90573 -28.7242
ltibia 24.2923
lfoot -14.4205 -1.02415
ltoes -17.2057
329
root -0.33628 17.0952 10.8188 0.34569 4.0706 5.74013
lowerback 6.6643 -1.77964 -7.42802
upperback 0.18043 -2.89648 1.16318
thorax -3.12558 -1.32461 5.65023
lowerneck -17.1681 -5.0315 -9.88807
upperneck 21.288 -6.05056 7.18597
head 10.1551 -2.78762 3.33967
rclavicle -2.87741e-014 2.38542e-015
rhumerus -37.0856 -23.5997 -72.445
rradius 25.6165
rwrist 11.8196
rhand -15.1068 14.2845
rfingers 7.12502
rthumb 11.0617 -15.404
lclavicle -2.87741e-014 2.38542e-015
lhumerus -22.5956 -3.24103 86.4048
lradius 35.4092
lwrist -7.29367
lhand -12.3059 25.6419
lfingers 7.12502
lthumb 13.7622 55.1667
rfemur -28.0064 0.980953 14.3718
rtibia 20.1595
rfoot -1.31018 -6.99252
rtoes -2.05145
lfemur 11.8896 -5.36971 -28.3818
ltibia 25.1568
lfoot -13.3461 -1.1132
ltoes -19.2135
330
root -0.359052 17.128 11.0353 0.111169 4.32405 5.65959
lowerback 6.87384 -1.85691 -7.37908
upperback 0.107075 -3.01324 1.2062
thorax -3.30256 -1.37325 5.68967
lowerneck -17.1843 -4.96653 -10.0368
upperneck 21.597 -5.95676 7.28023
head 10.2682 -2.7472 3.41693
rclavicle 4.46769e-014 -2.38542e-015
rhumerus -37.3688 -23.5545 -72.1875
rradius 25.4908
rwrist 12.0601
rhand -15.0318 15.3796
rfingers 7.12502
rthumb 11.134 -14.3051
lclavicle 4.46769e-014 -2.38542e-015
lhumerus -22.8199 -3.12051 86.4561
lradius 35.5111
lwrist -7.13282
lhand -12.7768 25.4953
lfingers 7.12502
lthumb 13.3084 55.0504
rfemur -27.7519 1.28773 14.3504
rtibia 20.9463
rfoot 0.0074559 -7.37061
rtoes 0.000220922
lfemur 12.064 -5.85259 -28.3409
ltibia 26.1843
lfoot -12.0178 -1.40422
ltoes -20.1853
331
root -0.375736 17.1492 11.255 -0.110364 4.52096 5.61256
lowerback 6.82419 -1.93089 -7.28428
upperback 0.134056 -3.09886 1.22567
thorax -3.23721 -1.42096 5.6599
lowerneck -16.8252 -4.91939 -10.2062
upperneck 21.5407 -5.90708 7.39981
head 10.1848 -2.73234 3.49932
rclavicle -3.24019e-014 -1.43125e-014
rhumerus -37.4936 -23.3262 -72.1132
rradius 25.3649
rwrist 12.048
rhand -15.2225 15.3207
rfingers 7.12502
rthumb 10.9502 -14.3737
lclavicle -3.24019e-014 -1.43125e-014
lhumerus -23.113 -2.68029 86.4853
lradius 35.8352
lwrist -7.27804
lhand -13.0575 25.6062
lfingers 7.12502
lthumb 13.0378 55.1788
rfemur -27.2964 1.17637 14.436
rtibia 21.5168
rfoot 1.08099 -7.2662
rtoes -0.702967
lfemur 12.1802 -6.24829 -28.3878
ltibia 27.3909
lfoot -10.4895 -1.66459
ltoes -20.686
332
root -0.398621 17.1643 11.4744 -0.239048 4.60745 5.34984
lowerback 6.48697 -1.95314 -7.04684
upperback 0.231912 -3.07916 1.30262
thorax -2.95629 -1.42931 5.58459
lowerneck -16.5994 -4.92489 -10.2834
upperneck 21.5068 -5.92003 7.41987
head 10.1347 -2.74707 3.51971
rclavicle 4.91495e-014 -1.19271e-014
rhumerus -37.3928 -23.5779 -71.9448
rradius 25.0706
rwrist 12.3043
rhand -15.377 14.9665
rfingers 7.12502
rthumb 10.8012 -14.7358
lclavicle 4.91495e-014 -1.19271e-014
lhumerus -23.3661 -2.40686 86.4898
lradius 36.16
lwrist -7.43184
lhand -12.9751 25.401
lfingers 7.12502
lthumb 13.1172 54.9685
rfemur -26.8186 1.12752 14.8057
rtibia 21.9684
rfoot 2.11614 -6.30994
rtoes -4.50162
lfemur 11.9909 -6.38332 -28.0948
ltibia 28.9036
lfoot -8.80431 -2.04071
ltoes -21.7128
333
root -0.427139 17.1777 11.6921 -0.450582 4.64147 4.89539
lowerback 6.49549 -1.94281 -6.68879
upperback 0.163112 -3.03648 1.45929
thorax -3.0487 -1.40661 5.54636
lowerneck -16.4663 -4.87337 -10.3207
upperneck 21.714 -5.83423 7.30753
head 10.1729 -2.72741 3.5029
rclavicle 3.68249e-014 2.38542e-015
rhumerus -37.5397 -24.0493 -71.4591
rradius 24.6267
rwrist 12.7122
rhand -15.3342 13.9323
rfingers 7.12502
rthumb 10.8424 -15.7678
lclavicle 3.68249e-014 2.38542e-015
lhumerus -23.6989 -2.2142 86.5477
lradius 36.1842
lwrist -7.36649
lhand -12.9331 25.5467
lfingers 7.12502
lthumb 13.1577 55.1116
rfemur -26.2127 1.2324 15.3994
rtibia 22.3047
rfoot 3.27724 -4.43217
rtoes -7.50095
lfemur 11.604 -6.26014 -27.4756
ltibia 30.7691
lfoot -6.9437 -2.54185
ltoes -22.7621
334
root -0.45446 17.1892 11.91 -0.662058 4.56909 4.38455
lowerback 6.68834 -1.92052 -6.27816
upperback 0.0407368 -2.98493 1.65485
thorax -3.30201 -1.37256 5.52944
lowerneck -16.3888 -4.83358 -10.2906
upperneck 21.8901 -5.74803 7.08601
head 10.2053 -2.71312 3.43413
rclavicle -1.69215e-014 -6.36111e-015
rhumerus -37.8642 -24.2194 -71.0146
rradius 24.4143
rwrist 12.9377
rhand -15.2377 13.2252
rfingers 7.12502
rthumb 10.9354 -16.47
lclavicle -1.69215e-014 -6.36111e-015
lhumerus -24.1738 -1.75045 86.5793
lradius 36.3584
lwrist -7.21538
lhand -12.905 25.6831
lfingers 7.12502
lthumb 13.1848 55.2461
rfemur -25.5951 1.26497 16.153
rtibia 22.6093
rfoot 4.02505 -2.98174
rtoes -5.00462
lfemur 10.9948 -5.82559 -26.6801
ltibia 32.8841
lfoot -4.80674 -3.00651
ltoes -22.7746
335
root -0.478924 17.2086 12.1298 -0.820716 4.24972 3.51278
lowerback 6.54195 -1.85686 -5.47044
upperback 0.0869681 -2.81984 1.91062
thorax -3.21943 -1.30592 5.3188
lowerneck -16.635 -4.88894 -10.283
upperneck 22.1806 -5.78349 6.95338
head 10.3564 -2.74088 3.38107
rclavicle 3.61788e-014 1.59028e-015
rhumerus -37.8473 -24.6775 -70.6829
rradius 24.136
rwrist 13.533
rhand -15.1648 13.415
rfingers 7.12502
rthumb 11.0058 -16.2765
lclavicle 3.61788e-014 1.59028e-015
lhumerus -24.6949 -1.2572 86.5405
lradius 36.8912
lwrist -6.97967
lhand -13.1228 25.262
lfingers 7.12502
lthumb 12.9749 54.8386
rfemur -25.0888 1.40597 17.4163
rtibia 23.0568
rfoot 4.43405 -2.75659
rtoes -2.22267
lfemur 10.1399 -5.0175 -25.4186
ltibia 35.0599
lfoot -2.13037 -3.43426
ltoes -22.1255
336
root -0.5049 17.2321 12.3455 -0.882241 3.92186 2.70831
lowerback 6.22647 -1.8042 -4.75432
upperback 0.13239 -2.67397 2.12778
thorax -3.03564 -1.2501 5.11296
lowerneck -16.7927 -4.87679 -10.2312
upperneck 22.334 -5.76319 6.91825
head 10.4371 -2.72914 3.36315
rclavicle -1.75179e-014 0
rhumerus -37.6959 -25.2 -70.4302
rradius 23.8096
rwrist 14.3421
rhand -15.0666 12.8343
rfingers 7.12502
rthumb 11.1005 -16.8521
lclavicle -1.75179e-014 0
lhumerus -25.2871 -0.793759 86.4033
lradius 37.6029
lwrist -6.82045
lhand -13.1909 24.5815
lfingers 7.12502
lthumb 12.9092 54.1622
rfemur -24.6918 1.55531 18.6404
rtibia 23.6869
rfoot 4.4248 -3.28018
rtoes -1.14138
lfemur 9.03679 -4.1059 -24.1433
ltibia 37.1981
lfoot 1.20079 -3.82472
ltoes -20.4975
